<svg width="50" height="50" viewBox="0 0 50 50" fill="none" xmlns="http://www.w3.org/2000/svg">
<g clip-path="url(#clip0_188_825)">
<path d="M33.4063 28.1255L26.9583 34.5755C26.3721 35.1614 26.0426 35.9563 26.0424 36.7851C26.0422 37.614 26.3713 38.409 26.9573 38.9952C27.5433 39.5815 28.3381 39.9109 29.167 39.9111C29.9958 39.9113 30.7908 39.5822 31.3771 38.9963L43.1625 27.2109C43.4529 26.9207 43.6833 26.5761 43.8404 26.1968C43.9976 25.8175 44.0785 25.411 44.0785 25.0005C44.0785 24.5899 43.9976 24.1834 43.8404 23.8041C43.6833 23.4248 43.4529 23.0802 43.1625 22.79L31.3792 11.0046C31.0889 10.7143 30.7443 10.4841 30.365 10.327C29.9858 10.1699 29.5793 10.089 29.1688 10.089C28.7582 10.089 28.3517 10.1699 27.9725 10.327C27.5932 10.4841 27.2486 10.7143 26.9583 11.0046C26.6681 11.2949 26.4378 11.6395 26.2807 12.0188C26.1236 12.398 26.0428 12.8045 26.0428 13.215C26.0428 13.6255 26.1236 14.032 26.2807 14.4113C26.4378 14.7906 26.6681 15.1352 26.9583 15.4255L33.4063 21.8755H9.375C8.5462 21.8755 7.75134 22.2047 7.16529 22.7907C6.57924 23.3768 6.25 24.1717 6.25 25.0005C6.25 25.8293 6.57924 26.6241 7.16529 27.2102C7.75134 27.7962 8.5462 28.1255 9.375 28.1255H33.4063Z" fill="white"/>
</g>
<defs>
<clipPath id="clip0_188_825">
<rect width="50" height="50" fill="white" transform="matrix(0 -1 1 0 0 50)"/>
</clipPath>
</defs>
</svg>
