<svg width="50" height="50" viewBox="0 0 50 50" fill="none" xmlns="http://www.w3.org/2000/svg">
<g clip-path="url(#clip0_188_825)">
<path d="M21.8745 33.4063L15.4245 26.9583C14.8386 26.3721 14.0437 26.0426 13.2149 26.0424C12.386 26.0422 11.591 26.3713 11.0048 26.9573C10.4185 27.5433 10.0891 28.3381 10.0889 29.167C10.0887 29.9958 10.4178 30.7908 11.0037 31.3771L22.7891 43.1625C23.0793 43.4529 23.4239 43.6833 23.8032 43.8404C24.1825 43.9976 24.589 44.0785 24.9995 44.0785C25.4101 44.0785 25.8166 43.9976 26.1959 43.8404C26.5752 43.6833 26.9198 43.4529 27.21 43.1625L38.9954 31.3792C39.2857 31.0889 39.5159 30.7443 39.673 30.365C39.8301 29.9858 39.911 29.5793 39.911 29.1688C39.911 28.7582 39.8301 28.3517 39.673 27.9725C39.5159 27.5932 39.2857 27.2486 38.9954 26.9583C38.7051 26.6681 38.3605 26.4378 37.9812 26.2807C37.602 26.1236 37.1955 26.0428 36.785 26.0428C36.3745 26.0428 35.968 26.1236 35.5887 26.2807C35.2094 26.4378 34.8648 26.6681 34.5745 26.9583L28.1245 33.4063V9.375C28.1245 8.5462 27.7953 7.75134 27.2093 7.16529C26.6232 6.57924 25.8283 6.25 24.9995 6.25C24.1707 6.25 23.3759 6.57924 22.7898 7.16529C22.2038 7.75134 21.8745 8.5462 21.8745 9.375V33.4063Z" fill="#213448"/>
</g>
<defs>
<clipPath id="clip0_188_825">
<rect width="50" height="50" fill="white"/>
</clipPath>
</defs>
</svg>
