<svg width="218" height="260" viewBox="0 0 218 260" fill="none" xmlns="http://www.w3.org/2000/svg">
<path d="M42.873 20.7236C41.6525 9.05852 31.2013 0.587363 19.5361 1.80762C7.8709 3.028 -0.601122 13.4793 0.619141 25.1445C1.83961 36.8096 12.2909 45.2807 23.9561 44.0615C28.6714 43.5681 32.8609 41.5677 36.1055 38.5791L36.2812 38.418L36.5166 38.4521L46.3701 39.8984L41.4453 31.3906L41.3223 31.1777L41.416 30.9502C42.7051 27.8135 43.2493 24.3209 42.873 20.7236Z" fill="white" stroke="black"/>
<mask id="path-2-inside-1_260_211" fill="white">
<path d="M0.121742 25.1961C0.575742 29.1651 2.02673 33.0551 4.50973 36.2171C5.07973 37.0451 5.81474 37.7371 6.48074 38.4851C7.23674 39.1431 7.94074 39.8651 8.77474 40.4281C10.3647 41.6531 12.1517 42.6131 14.0187 43.3481C15.8777 44.1301 17.8767 44.5041 19.8717 44.7441C20.8777 44.7981 21.8847 44.8901 22.8917 44.8021C23.9007 44.7791 24.9067 44.6711 25.9007 44.4891C29.8787 43.7691 33.6467 41.9061 36.6557 39.1781L36.3987 39.2571L47.2647 40.9251L48.0527 41.0461L47.6537 40.3511L42.2437 30.9301L42.2687 31.3021C44.9037 25.0971 44.3097 17.7071 40.9297 11.9251C39.2447 9.03013 36.8947 6.53513 34.1207 4.67513C31.3487 2.80913 28.1337 1.63913 24.8427 1.19413C21.5487 0.757129 18.1577 1.05713 15.0117 2.10213C11.8697 3.16013 8.98874 4.93913 6.62774 7.24313C1.82774 11.8051 -0.585258 18.6501 0.121742 25.1961ZM0.121742 25.1961C-0.539258 18.6441 1.92174 11.8411 6.72274 7.34013C9.10674 5.08913 11.9927 3.38313 15.1067 2.39413C18.2257 1.41813 21.5627 1.18513 24.7757 1.66913C27.9867 2.16213 31.0957 3.35713 33.7547 5.21613C36.4067 7.07813 38.6437 9.51413 40.2597 12.3111C41.9077 15.1021 42.7607 18.3001 43.0187 21.5101C43.2227 24.7311 42.6967 27.9901 41.4887 30.9811L41.4107 31.1761L41.5147 31.3541L46.9887 40.7381L47.3777 40.1641L36.4917 38.6391L36.3417 38.6181L36.2347 38.7191C33.3567 41.4201 29.7147 43.3061 25.8247 44.0811C24.8527 44.2771 23.8667 44.4001 22.8757 44.4401C21.8857 44.5451 20.8937 44.4711 19.9007 44.4351C17.9317 44.2331 15.9477 43.8991 14.0947 43.1571C12.2337 42.4601 10.4357 41.5461 8.85073 40.3311C8.01673 39.7771 7.31174 39.0641 6.55474 38.4141C5.88774 37.6741 5.15074 36.9901 4.57774 36.1691C2.07874 33.0341 0.602742 29.1631 0.121742 25.1961Z"/>
</mask>
<path d="M0.121742 25.1961C0.575742 29.1651 2.02673 33.0551 4.50973 36.2171C5.07973 37.0451 5.81474 37.7371 6.48074 38.4851C7.23674 39.1431 7.94074 39.8651 8.77474 40.4281C10.3647 41.6531 12.1517 42.6131 14.0187 43.3481C15.8777 44.1301 17.8767 44.5041 19.8717 44.7441C20.8777 44.7981 21.8847 44.8901 22.8917 44.8021C23.9007 44.7791 24.9067 44.6711 25.9007 44.4891C29.8787 43.7691 33.6467 41.9061 36.6557 39.1781L36.3987 39.2571L47.2647 40.9251L48.0527 41.0461L47.6537 40.3511L42.2437 30.9301L42.2687 31.3021C44.9037 25.0971 44.3097 17.7071 40.9297 11.9251C39.2447 9.03013 36.8947 6.53513 34.1207 4.67513C31.3487 2.80913 28.1337 1.63913 24.8427 1.19413C21.5487 0.757129 18.1577 1.05713 15.0117 2.10213C11.8697 3.16013 8.98874 4.93913 6.62774 7.24313C1.82774 11.8051 -0.585258 18.6501 0.121742 25.1961ZM0.121742 25.1961C-0.539258 18.6441 1.92174 11.8411 6.72274 7.34013C9.10674 5.08913 11.9927 3.38313 15.1067 2.39413C18.2257 1.41813 21.5627 1.18513 24.7757 1.66913C27.9867 2.16213 31.0957 3.35713 33.7547 5.21613C36.4067 7.07813 38.6437 9.51413 40.2597 12.3111C41.9077 15.1021 42.7607 18.3001 43.0187 21.5101C43.2227 24.7311 42.6967 27.9901 41.4887 30.9811L41.4107 31.1761L41.5147 31.3541L46.9887 40.7381L47.3777 40.1641L36.4917 38.6391L36.3417 38.6181L36.2347 38.7191C33.3567 41.4201 29.7147 43.3061 25.8247 44.0811C24.8527 44.2771 23.8667 44.4001 22.8757 44.4401C21.8857 44.5451 20.8937 44.4711 19.9007 44.4351C17.9317 44.2331 15.9477 43.8991 14.0947 43.1571C12.2337 42.4601 10.4357 41.5461 8.85073 40.3311C8.01673 39.7771 7.31174 39.0641 6.55474 38.4141C5.88774 37.6741 5.15074 36.9901 4.57774 36.1691C2.07874 33.0341 0.602742 29.1631 0.121742 25.1961Z" fill="#263238"/>
<path d="M0.121742 25.1961L-0.871799 25.3098L-0.872476 25.3035L0.121742 25.1961ZM4.50973 36.2171L5.29622 35.5995L5.31561 35.6242L5.33342 35.6501L4.50973 36.2171ZM6.48074 38.4851L5.82421 39.2394L5.7762 39.1976L5.73388 39.1501L6.48074 38.4851ZM8.77474 40.4281L9.33425 39.5993L9.36023 39.6168L9.38505 39.636L8.77474 40.4281ZM14.0187 43.3481L14.385 42.4176L14.3958 42.4219L14.4065 42.4264L14.0187 43.3481ZM19.8717 44.7441L19.8181 45.7427L19.7851 45.7409L19.7523 45.737L19.8717 44.7441ZM22.8917 44.8021L22.8047 43.8059L22.8368 43.8031L22.8689 43.8024L22.8917 44.8021ZM25.9007 44.4891L25.7206 43.5055L25.7226 43.5051L25.9007 44.4891ZM36.6557 39.1781L36.3619 38.2223L37.3274 39.919L36.6557 39.1781ZM36.3987 39.2571L36.247 40.2456L36.1049 38.3013L36.3987 39.2571ZM47.2647 40.9251L47.4165 39.9367L47.4165 39.9367L47.2647 40.9251ZM48.0527 41.0461L48.92 40.5482L49.9543 42.3498L47.901 42.0345L48.0527 41.0461ZM47.6537 40.3511L48.5209 39.8532L48.521 39.8532L47.6537 40.3511ZM42.2437 30.9301L41.246 30.9972L43.1109 30.4321L42.2437 30.9301ZM42.2687 31.3021L43.1892 31.693L41.271 31.3692L42.2687 31.3021ZM40.9297 11.9251L40.0664 12.4298L40.0655 12.4282L40.9297 11.9251ZM34.1207 4.67513L33.5638 5.50571L33.5623 5.50469L34.1207 4.67513ZM24.8427 1.19413L24.9742 0.202811L24.9767 0.203147L24.8427 1.19413ZM15.0117 2.10213L14.6926 1.15441L14.6965 1.15312L15.0117 2.10213ZM6.62774 7.24313L7.32621 7.95889L7.31665 7.96798L6.62774 7.24313ZM6.72274 7.34013L7.40928 8.06723L7.40669 8.06966L6.72274 7.34013ZM15.1067 2.39413L14.804 1.44104L14.8081 1.43977L15.1067 2.39413ZM24.7757 1.66913L24.9247 0.680279L24.9275 0.680709L24.7757 1.66913ZM33.7547 5.21613L34.3277 4.39657L34.3294 4.39771L33.7547 5.21613ZM40.2597 12.3111L39.3986 12.8196L39.3939 12.8114L40.2597 12.3111ZM43.0187 21.5101L44.0155 21.43L44.0162 21.4385L44.0167 21.4469L43.0187 21.5101ZM41.4887 30.9811L40.5602 30.6098L40.5615 30.6066L41.4887 30.9811ZM41.4107 31.1761L40.5473 31.6806L40.3007 31.2586L40.4823 30.8048L41.4107 31.1761ZM41.5147 31.3541L42.3782 30.8497L42.3785 30.8503L41.5147 31.3541ZM46.9887 40.7381L47.8165 41.2991L46.9254 42.6141L46.125 41.242L46.9887 40.7381ZM47.3777 40.1641L47.5165 39.1738L49.106 39.3965L48.2055 40.7251L47.3777 40.1641ZM36.4917 38.6391L36.6304 37.6488L36.6305 37.6488L36.4917 38.6391ZM36.3417 38.6181L35.6553 37.8909L36.0046 37.5612L36.4803 37.6278L36.3417 38.6181ZM36.2347 38.7191L36.9212 39.4463L36.9191 39.4483L36.2347 38.7191ZM25.8247 44.0811L25.6271 43.1009L25.6293 43.1004L25.8247 44.0811ZM22.8757 44.4401L22.7703 43.4457L22.8028 43.4423L22.8354 43.4409L22.8757 44.4401ZM19.9007 44.4351L19.8645 45.4345L19.8315 45.4333L19.7987 45.4299L19.9007 44.4351ZM14.0947 43.1571L14.4455 42.2207L14.456 42.2246L14.4665 42.2288L14.0947 43.1571ZM8.85073 40.3311L9.40405 39.4982L9.43224 39.5169L9.45911 39.5375L8.85073 40.3311ZM6.55474 38.4141L5.90329 39.1728L5.85477 39.1312L5.81195 39.0837L6.55474 38.4141ZM4.57774 36.1691L5.3597 35.5458L5.37954 35.5707L5.39776 35.5968L4.57774 36.1691ZM0.121742 25.1961L1.11526 25.0825C1.55091 28.891 2.9413 32.6006 5.29622 35.5995L4.50973 36.2171L3.72324 36.8347C1.11216 33.5096 -0.399426 29.4392 -0.871779 25.3098L0.121742 25.1961ZM4.50973 36.2171L5.33342 35.6501C5.85732 36.4111 6.48179 36.9825 7.22759 37.8201L6.48074 38.4851L5.73388 39.1501C5.14768 38.4917 4.30214 37.6791 3.68603 36.7842L4.50973 36.2171ZM6.48074 38.4851L7.13726 37.7308C7.97683 38.4616 8.56698 39.0814 9.33425 39.5993L8.77474 40.4281L8.21524 41.257C7.3145 40.6489 6.49664 39.8247 5.82421 39.2394L6.48074 38.4851ZM8.77474 40.4281L9.38505 39.636C10.8889 40.7946 12.5905 41.7112 14.385 42.4176L14.0187 43.3481L13.6524 44.2786C11.713 43.5151 9.84062 42.5117 8.16443 41.2203L8.77474 40.4281ZM14.0187 43.3481L14.4065 42.4264C16.1397 43.1555 18.0321 43.5156 19.9912 43.7513L19.8717 44.7441L19.7523 45.737C17.7214 45.4927 15.6157 45.1048 13.631 44.2699L14.0187 43.3481ZM19.8717 44.7441L19.9253 43.7456C20.9841 43.8024 21.8888 43.886 22.8047 43.8059L22.8917 44.8021L22.9788 45.7983C21.8807 45.8943 20.7714 45.7939 19.8181 45.7427L19.8717 44.7441ZM22.8917 44.8021L22.8689 43.8024C23.8218 43.7807 24.7752 43.6786 25.7206 43.5055L25.9007 44.4891L26.0808 45.4728C25.0383 45.6637 23.9796 45.7776 22.9145 45.8019L22.8917 44.8021ZM25.9007 44.4891L25.7226 43.5051C29.5152 42.8187 33.1125 41.0407 35.9841 38.4373L36.6557 39.1781L37.3274 39.919C34.1809 42.7716 30.2423 44.7196 26.0788 45.4731L25.9007 44.4891ZM36.6557 39.1781L36.9496 40.134L36.6926 40.213L36.3987 39.2571L36.1049 38.3013L36.3619 38.2223L36.6557 39.1781ZM36.3987 39.2571L36.5505 38.2687L47.4165 39.9367L47.2647 40.9251L47.113 41.9136L36.247 40.2456L36.3987 39.2571ZM47.2647 40.9251L47.4165 39.9367L48.2045 40.0577L48.0527 41.0461L47.901 42.0345L47.113 41.9135L47.2647 40.9251ZM48.0527 41.0461L47.1855 41.544L46.7865 40.849L47.6537 40.3511L48.521 39.8532L48.92 40.5482L48.0527 41.0461ZM47.6537 40.3511L46.7865 40.8491L41.3765 31.4281L42.2437 30.9301L43.1109 30.4321L48.5209 39.8532L47.6537 40.3511ZM42.2437 30.9301L43.2415 30.8631L43.2665 31.2351L42.2687 31.3021L41.271 31.3692L41.246 30.9972L42.2437 30.9301ZM42.2687 31.3021L41.3483 30.9113C43.855 25.0085 43.2934 17.95 40.0664 12.4298L40.9297 11.9251L41.793 11.4205C45.3261 17.4643 45.9525 25.1858 43.1892 31.693L42.2687 31.3021ZM40.9297 11.9251L40.0655 12.4282C38.4573 9.66517 36.2128 7.28185 33.5638 5.5057L34.1207 4.67513L34.6776 3.84456C37.5767 5.78842 40.0322 8.39509 41.794 11.4221L40.9297 11.9251ZM34.1207 4.67513L33.5623 5.50469C30.9254 3.72964 27.8575 2.61087 24.7087 2.18511L24.8427 1.19413L24.9767 0.203147C28.41 0.667384 31.772 1.88862 34.6792 3.84558L34.1207 4.67513ZM24.8427 1.19413L24.7112 2.18544C21.5629 1.76777 18.3249 2.05532 15.327 3.05115L15.0117 2.10213L14.6965 1.15312C17.9905 0.0589473 21.5345 -0.253515 24.9742 0.202814L24.8427 1.19413ZM15.0117 2.10213L15.3309 3.04985C12.3335 4.05914 9.58157 5.75786 7.32615 7.95883L6.62774 7.24313L5.92932 6.52744C8.3959 4.12041 11.406 2.26113 14.6926 1.15442L15.0117 2.10213ZM6.62774 7.24313L7.31665 7.96798C2.74934 12.3088 0.441402 18.8431 1.11596 25.0887L0.121742 25.1961L-0.872476 25.3035C-1.61192 18.4571 0.90614 11.3014 5.93883 6.51828L6.62774 7.24313ZM0.121742 25.1961L-0.873207 25.2965C-1.56452 18.444 1.00363 11.3311 6.03879 6.6106L6.72274 7.34013L7.40669 8.06966C2.83985 12.3511 0.486006 18.8442 1.11669 25.0958L0.121742 25.1961ZM6.72274 7.34013L6.03621 6.61303C8.52844 4.25984 11.5453 2.47601 14.804 1.44105L15.1067 2.39413L15.4094 3.34722C12.4402 4.29025 9.68504 5.91843 7.40927 8.06723L6.72274 7.34013ZM15.1067 2.39413L14.8081 1.43977C18.0761 0.417142 21.5664 0.174393 24.9247 0.680283L24.7757 1.66913L24.6268 2.65797C21.5591 2.19586 18.3754 2.41912 15.4054 3.3485L15.1067 2.39413ZM24.7757 1.66913L24.9275 0.680709C28.2798 1.19541 31.5349 2.44403 34.3277 4.39657L33.7547 5.21613L33.1818 6.0357C30.6565 4.27023 27.6937 3.12885 24.624 2.65754L24.7757 1.66913ZM33.7547 5.21613L34.3294 4.39771C37.0993 6.34255 39.4362 8.88675 41.1256 11.8109L40.2597 12.3111L39.3939 12.8114C37.8513 10.1415 35.7141 7.81371 33.1801 6.03455L33.7547 5.21613ZM40.2597 12.3111L41.1208 11.8027C42.8613 14.7504 43.748 18.1021 44.0155 21.43L43.0187 21.5101L42.022 21.5902C41.7734 18.4981 40.9541 15.4539 39.3986 12.8196L40.2597 12.3111ZM43.0187 21.5101L44.0167 21.4469C44.2302 24.817 43.6801 28.2256 42.416 31.3556L41.4887 30.9811L40.5615 30.6066C41.7134 27.7546 42.2153 24.6452 42.0207 21.5733L43.0187 21.5101ZM41.4887 30.9811L42.4172 31.3525L42.3392 31.5475L41.4107 31.1761L40.4823 30.8048L40.5602 30.6098L41.4887 30.9811ZM41.4107 31.1761L42.2742 30.6717L42.3782 30.8497L41.5147 31.3541L40.6513 31.8586L40.5473 31.6806L41.4107 31.1761ZM41.5147 31.3541L42.3785 30.8503L47.8525 40.2343L46.9887 40.7381L46.125 41.242L40.651 31.858L41.5147 31.3541ZM46.9887 40.7381L46.1609 40.1771L46.5499 39.6031L47.3777 40.1641L48.2055 40.7251L47.8165 41.2991L46.9887 40.7381ZM47.3777 40.1641L47.239 41.1545L36.353 39.6295L36.4917 38.6391L36.6305 37.6488L47.5165 39.1738L47.3777 40.1641ZM36.4917 38.6391L36.3531 39.6295L36.2031 39.6085L36.3417 38.6181L36.4803 37.6278L36.6304 37.6488L36.4917 38.6391ZM36.3417 38.6181L37.0282 39.3453L36.9212 39.4463L36.2347 38.7191L35.5483 37.9919L35.6553 37.8909L36.3417 38.6181ZM36.2347 38.7191L36.9191 39.4483C33.9058 42.2762 30.0948 44.2501 26.0201 45.0619L25.8247 44.0811L25.6293 43.1004C29.3346 42.3622 32.8076 40.5641 35.5504 37.99L36.2347 38.7191ZM25.8247 44.0811L26.0224 45.0614C25.0015 45.2673 23.9629 45.3971 22.9161 45.4393L22.8757 44.4401L22.8354 43.4409C23.7706 43.4032 24.704 43.287 25.6271 43.1009L25.8247 44.0811ZM22.8757 44.4401L22.9812 45.4346C21.8995 45.5493 20.8038 45.4685 19.8645 45.4345L19.9007 44.4351L19.937 43.4358C20.9836 43.4737 21.872 43.541 22.7703 43.4457L22.8757 44.4401ZM19.9007 44.4351L19.7987 45.4299C17.7941 45.2243 15.703 44.8783 13.723 44.0855L14.0947 43.1571L14.4665 42.2288C16.1925 42.92 18.0694 43.242 20.0028 43.4404L19.9007 44.4351ZM14.0947 43.1571L13.744 44.0936C11.8146 43.371 9.92378 42.4137 8.24235 41.1248L8.85073 40.3311L9.45911 39.5375C10.9477 40.6786 12.6529 41.5493 14.4455 42.2207L14.0947 43.1571ZM8.85073 40.3311L8.29741 41.1641C7.39586 40.5652 6.57662 39.751 5.90329 39.1728L6.55474 38.4141L7.20619 37.6554C8.04686 38.3773 8.6376 38.989 9.40405 39.4982L8.85073 40.3311ZM6.55474 38.4141L5.81195 39.0837C5.22638 38.434 4.377 37.6288 3.75771 36.7415L4.57774 36.1691L5.39776 35.5968C5.92447 36.3515 6.5491 36.9143 7.29754 37.7446L6.55474 38.4141ZM4.57774 36.1691L3.79577 36.7925C1.16732 33.4951 -0.370542 29.4439 -0.870987 25.3165L0.121742 25.1961L1.11447 25.0758C1.57603 28.8824 2.99015 32.5732 5.3597 35.5458L4.57774 36.1691Z" fill="black" mask="url(#path-2-inside-1_260_211)"/>
<circle cx="12.5" cy="23.5" r="2.5" fill="#213448"/>
<circle cx="22" cy="23.5" r="2.5" fill="#213448"/>
<circle cx="31.5" cy="23.5" r="2.5" fill="#213448"/>
<path d="M133.635 216.099L18.2642 167.256L59.5817 69.6611L132.765 57.4521L174.953 118.504L133.635 216.099Z" fill="#FFA520"/>
<path opacity="0.2" d="M133.635 216.099L18.2642 167.256L59.5817 69.6611L132.765 57.4521L174.953 118.504L133.635 216.099Z" fill="black"/>
<path d="M185.918 74.4807L83.5586 31.1465L27.931 162.543L130.29 205.878L185.918 74.4807Z" fill="#EBEBEB"/>
<path d="M95.222 128.79L81.8294 95.1468L92.996 90.7014L100.82 110.353L148.137 77.8064L154.951 87.7083L95.222 128.79Z" fill="#FFA520"/>
<path d="M164.611 142.933L133.636 216.099L18.2649 167.256L49.2402 94.0898C53.0072 98.9945 56.6291 104.001 60.3139 108.953C63.9603 113.95 67.6062 118.946 71.1958 123.979C75.2076 129.56 79.1976 135.192 83.1552 140.852C83.2225 140.839 83.306 140.834 83.3724 140.821C83.306 140.834 83.2492 140.871 83.1828 140.884C86.1555 145.105 89.1216 149.344 92.0878 153.583C97.1784 152.755 102.294 151.917 107.386 151.131C107.349 151.074 107.336 151.008 107.299 150.95C107.336 151.008 107.391 151.071 107.435 151.11C114.246 150.03 121.051 148.968 127.874 147.954C133.979 147.045 140.095 146.16 146.213 145.319C152.353 144.526 158.469 143.642 164.611 142.933Z" fill="#FFA520"/>
<g opacity="0.2">
<path d="M164.61 142.933C158.563 144.235 152.489 145.36 146.429 146.596C140.364 147.746 134.282 148.89 128.196 149.991C121.844 151.143 115.491 152.253 109.144 153.346C108.944 153.384 108.761 153.429 108.561 153.467C102.947 154.421 97.3165 155.368 91.6854 156.313L90.8581 156.433L90.386 155.763C87.1468 151.061 83.9241 146.367 80.7085 141.655C80.5895 141.503 80.477 141.332 80.3654 141.162C76.7148 135.837 73.0896 130.502 69.5032 125.123C66.0691 120.011 62.6569 114.849 59.2612 109.693C55.9302 104.482 52.5105 99.3366 49.2363 94.0889C53.0033 98.9935 56.6252 104 60.31 108.952C63.9564 113.949 67.6023 118.945 71.1919 123.978C75.2037 129.559 79.1937 135.191 83.1513 140.851C83.1688 140.858 83.1688 140.858 83.1789 140.883C86.1516 145.104 89.1177 149.343 92.0839 153.582C97.1745 152.754 102.29 151.916 107.382 151.13C107.415 151.102 107.415 151.102 107.432 151.11C114.243 150.03 121.048 148.967 127.871 147.953C133.976 147.044 140.092 146.16 146.21 145.318C152.352 144.526 158.467 143.642 164.61 142.933Z" fill="black"/>
<path d="M83.3719 140.821C83.3055 140.834 83.2487 140.871 83.1823 140.884C82.3556 141.146 81.5294 141.41 80.71 141.655C76.7824 142.873 72.8296 143.958 68.8537 144.952C63.9921 146.203 59.0953 147.297 54.1894 148.366C49.2878 149.376 44.3761 150.361 39.421 151.205C34.4668 152.049 29.4995 152.827 24.4812 153.338C29.2796 151.754 34.1272 150.435 38.9818 149.2C43.8601 147.955 48.7568 146.862 53.6466 145.785C58.5731 144.765 63.4847 143.78 68.4389 142.936C72.3841 142.256 76.366 141.633 80.3664 141.161C81.2947 141.044 82.2159 140.943 83.1546 140.849C83.222 140.839 83.3055 140.834 83.3719 140.821Z" fill="black"/>
<path d="M139.299 201.949C136.174 197.99 133.258 193.875 130.433 189.737C127.591 185.592 124.88 181.379 122.175 177.149C119.527 172.882 116.905 168.605 114.419 164.244C112.383 160.705 110.403 157.129 108.562 153.468C108.158 152.685 107.771 151.908 107.384 151.132C107.348 151.075 107.335 151.008 107.297 150.951C107.335 151.008 107.389 151.072 107.433 151.111C108.013 151.867 108.581 152.598 109.143 153.346C111.589 156.547 113.896 159.832 116.171 163.146C119.013 167.291 121.724 171.503 124.403 175.743C127.051 180.01 129.673 184.287 132.158 188.649C134.67 193.001 137.099 197.4 139.299 201.949Z" fill="black"/>
</g>
<path d="M88.0305 25.6523C88.7411 22.9581 89.731 20.3812 90.7888 17.834C91.8745 15.2976 93.0308 12.7921 94.4678 10.4033C93.7591 13.0983 92.7691 15.6752 91.7095 18.2216C90.6219 20.7573 89.4653 23.2636 88.0305 25.6523Z" fill="#FFA520"/>
<path d="M80.5296 25.3296C79.1271 22.9223 78.0046 20.4001 76.9511 17.8507C75.9256 15.2892 74.9705 12.7 74.2988 9.99512C75.7035 12.4022 76.8251 14.924 77.8773 17.474C78.9006 20.0356 79.8553 22.6258 80.5296 25.3296Z" fill="#FFA520"/>
<path d="M74.9962 30.4041C72.302 29.6935 69.7251 28.7036 67.1779 27.6458C64.6415 26.5601 62.1347 25.4043 59.7473 23.9668C62.4422 24.6755 65.0191 25.6655 67.5655 26.7251C70.1017 27.814 72.6076 28.9693 74.9962 30.4041Z" fill="#FFA520"/>
<path d="M74.6751 37.9049C72.2678 39.3074 69.7456 40.4299 67.1962 41.4833C64.6347 42.5089 62.0455 43.464 59.3406 44.1357C61.7477 42.7309 64.2695 41.6093 66.8195 40.5572C69.3811 39.5339 71.9713 38.5791 74.6751 37.9049Z" fill="#FFA520"/>
<path d="M186.062 67.1544C186.778 64.4617 187.773 61.8867 188.836 59.341C189.928 56.8069 191.089 54.3034 192.53 51.9187C191.817 54.6127 190.821 57.1873 189.756 59.7323C188.663 62.2646 187.502 64.7681 186.062 67.1544Z" fill="#FFA520"/>
<path d="M191.514 72.3147C193.925 70.9169 196.449 69.7997 199.001 68.7515C201.563 67.7308 204.156 66.7813 206.861 66.1154C204.452 67.5158 201.928 68.6322 199.375 69.6787C196.811 70.6967 194.219 71.6453 191.514 72.3147Z" fill="#FFA520"/>
<path d="M191.721 79.8193C194.413 80.5358 196.988 81.5304 199.533 82.5936C202.067 83.6849 204.571 84.8458 206.955 86.2875C204.262 85.5738 201.687 84.5783 199.143 83.5132C196.61 82.4214 194.107 81.2596 191.721 79.8193Z" fill="#FFA520"/>
<path d="M186.559 85.2715C187.956 87.6822 189.074 90.2065 190.122 92.758C191.142 95.3216 192.092 97.913 192.758 100.619C191.358 98.2091 190.241 95.6851 189.195 93.1321C188.177 90.5684 187.228 87.9774 186.559 85.2715Z" fill="#FFA520"/>
<path d="M182.435 229H24V231.231H182.435V229Z" fill="#213448"/>
<path d="M182.435 235.915H24V238.146H182.435V235.915Z" fill="#213448"/>
<path d="M62.5289 259.926C66.5694 259.926 69.8449 256.65 69.8449 252.61C69.8449 248.569 66.5694 245.294 62.5289 245.294C58.4884 245.294 55.2129 248.569 55.2129 252.61C55.2129 256.65 58.4884 259.926 62.5289 259.926Z" fill="#FFA520"/>
<path d="M62.6452 256.878L58.2832 252.462L59.7492 251.014L62.2972 253.593L67.5912 245.294L69.3282 246.402L62.6452 256.878Z" fill="white"/>
<path d="M80.8555 252.543C80.8555 252.024 80.9495 251.51 81.1375 251.001C81.3255 250.493 81.5995 250.039 81.9595 249.64C82.3195 249.24 82.7595 248.915 83.2795 248.667C83.7995 248.419 84.3915 248.295 85.0555 248.295C85.8395 248.295 86.5175 248.468 87.0895 248.812C87.6615 249.156 88.0875 249.604 88.3675 250.156L87.0955 251.032C86.9835 250.792 86.8475 250.59 86.6875 250.425C86.5275 250.262 86.3555 250.131 86.1715 250.035C85.9875 249.939 85.7955 249.869 85.5955 249.825C85.3955 249.781 85.1995 249.76 85.0075 249.76C84.5915 249.76 84.2295 249.844 83.9215 250.012C83.6135 250.18 83.3575 250.398 83.1535 250.665C82.9495 250.934 82.7955 251.237 82.6915 251.577C82.5875 251.917 82.5355 252.255 82.5355 252.591C82.5355 252.968 82.5955 253.329 82.7155 253.678C82.8355 254.026 83.0055 254.331 83.2255 254.596C83.4455 254.86 83.7095 255.072 84.0175 255.232C84.3255 255.392 84.6635 255.472 85.0315 255.472C85.2235 255.472 85.4235 255.448 85.6315 255.4C85.8395 255.352 86.0375 255.276 86.2255 255.171C86.4135 255.067 86.5875 254.934 86.7475 254.77C86.9075 254.606 87.0355 254.408 87.1315 254.175L88.4875 254.955C88.3515 255.275 88.1575 255.558 87.9055 255.802C87.6535 256.045 87.3695 256.251 87.0535 256.419C86.7375 256.587 86.3995 256.716 86.0395 256.804C85.6795 256.892 85.3275 256.936 84.9835 256.936C84.3755 256.936 83.8195 256.808 83.3155 256.552C82.8115 256.295 82.3775 255.961 82.0135 255.549C81.6495 255.138 81.3655 254.669 81.1615 254.146C80.9575 253.622 80.8555 253.088 80.8555 252.543Z" fill="#FFA520"/>
<path d="M93.1559 256.923C92.5319 256.923 91.9659 256.802 91.4579 256.558C90.9499 256.314 90.5139 255.99 90.1499 255.585C89.7859 255.182 89.5039 254.72 89.3039 254.199C89.1039 253.679 89.0039 253.147 89.0039 252.603C89.0039 252.035 89.1099 251.491 89.3219 250.971C89.5339 250.45 89.8259 249.991 90.1979 249.59C90.5699 249.19 91.0119 248.872 91.5239 248.637C92.0359 248.401 92.5919 248.282 93.1919 248.282C93.8079 248.282 94.3699 248.408 94.8779 248.66C95.3859 248.912 95.8199 249.242 96.1799 249.65C96.5399 250.058 96.8199 250.522 97.0199 251.042C97.2199 251.563 97.3209 252.091 97.3209 252.626C97.3209 253.194 97.2169 253.736 97.0079 254.252C96.7999 254.769 96.5119 255.225 96.1439 255.62C95.7759 256.016 95.3359 256.332 94.8239 256.568C94.3119 256.806 93.7559 256.923 93.1559 256.923ZM90.6839 252.604C90.6839 252.972 90.7399 253.328 90.8519 253.671C90.9639 254.016 91.1259 254.319 91.3379 254.583C91.5499 254.848 91.8099 255.06 92.1179 255.22C92.4259 255.38 92.7759 255.459 93.1679 255.459C93.5679 255.459 93.9219 255.377 94.2299 255.213C94.5379 255.05 94.7979 254.831 95.0099 254.56C95.2219 254.288 95.3819 253.982 95.4899 253.642C95.5979 253.302 95.6519 252.956 95.6519 252.604C95.6519 252.236 95.5939 251.879 95.4779 251.536C95.3619 251.192 95.1979 250.889 94.9859 250.624C94.7739 250.36 94.5139 250.15 94.2059 249.994C93.8979 249.838 93.5519 249.761 93.1679 249.761C92.7679 249.761 92.4119 249.843 92.0999 250.006C91.7879 250.17 91.5279 250.387 91.3199 250.654C91.1119 250.922 90.9539 251.226 90.8459 251.566C90.7379 251.906 90.6839 252.251 90.6839 252.604Z" fill="#FFA520"/>
<path d="M100.248 251.404V256.864H98.5918V248.344H99.8758L104.317 253.936V248.356H105.972V256.864H104.628L100.248 251.404Z" fill="#FFA520"/>
<path d="M107.746 256.864V248.344H113.471V249.795H109.403V251.991H112.787V253.335H109.403V256.863H107.746V256.864Z" fill="#FFA520"/>
<path d="M114.635 256.864V248.344H116.291V256.864H114.635Z" fill="#FFA520"/>
<path d="M118.068 256.864V248.344H121.837C122.229 248.344 122.591 248.426 122.923 248.589C123.255 248.753 123.541 248.97 123.781 249.237C124.021 249.506 124.21 249.809 124.345 250.149C124.481 250.489 124.549 250.831 124.549 251.174C124.549 251.727 124.411 252.229 124.135 252.681C123.859 253.133 123.485 253.458 123.013 253.659L124.957 256.863H123.097L121.357 254.007H119.725V256.863H118.068V256.864ZM119.724 252.556H121.8C121.951 252.556 122.094 252.52 122.226 252.448C122.358 252.376 122.472 252.278 122.568 252.154C122.665 252.03 122.74 251.883 122.797 251.715C122.853 251.547 122.881 251.367 122.881 251.175C122.881 250.976 122.849 250.791 122.784 250.623C122.72 250.455 122.634 250.309 122.526 250.185C122.419 250.061 122.295 249.965 122.154 249.897C122.014 249.829 121.873 249.794 121.728 249.794H119.724V252.556Z" fill="#FFA520"/>
<path d="M132.994 256.864V251.224L130.798 255.423H129.899L127.703 251.224V256.864H126.047V248.344H127.823L130.343 253.192L132.887 248.344H134.652V256.864H132.994Z" fill="#FFA520"/>
<path d="M142.342 255.412V256.864H136.426V248.344H142.235V249.795H138.083V251.848H141.671V253.192H138.083V255.412H142.342Z" fill="#FFA520"/>
<path d="M143.639 256.864V248.344H146.736C147.431 248.344 148.042 248.455 148.566 248.68C149.089 248.904 149.527 249.207 149.88 249.591C150.232 249.976 150.496 250.425 150.672 250.941C150.848 251.457 150.936 252.007 150.936 252.591C150.936 253.239 150.838 253.825 150.642 254.35C150.447 254.873 150.164 255.322 149.796 255.694C149.428 256.066 148.986 256.354 148.47 256.558C147.954 256.762 147.376 256.864 146.737 256.864H143.639ZM149.267 252.591C149.267 252.184 149.211 251.808 149.099 251.463C148.988 251.119 148.824 250.823 148.608 250.575C148.391 250.327 148.126 250.136 147.809 249.999C147.494 249.863 147.135 249.795 146.736 249.795H145.296V255.411H146.736C147.143 255.411 147.506 255.339 147.822 255.195C148.137 255.051 148.402 254.853 148.614 254.601C148.826 254.349 148.988 254.051 149.099 253.706C149.211 253.364 149.267 252.992 149.267 252.591Z" fill="#FFA520"/>
</svg>
