<svg width="70" height="70" viewBox="0 0 70 70" fill="none" xmlns="http://www.w3.org/2000/svg">
<path d="M24.792 5.8335C22.4714 5.8335 20.2458 6.75537 18.6048 8.39631C16.9639 10.0373 16.042 12.2629 16.042 14.5835C16.042 16.9041 16.9639 19.1297 18.6048 20.7707C20.2458 22.4116 22.4714 23.3335 24.792 23.3335H45.2087C47.5293 23.3335 49.7549 22.4116 51.3958 20.7707C53.0368 19.1297 53.9587 16.9041 53.9587 14.5835C53.9587 12.2629 53.0368 10.0373 51.3958 8.39631C49.7549 6.75537 47.5293 5.8335 45.2087 5.8335H24.792ZM45.2087 26.2502C42.888 26.2502 40.6624 27.172 39.0215 28.813C37.3805 30.4539 36.4587 32.6795 36.4587 35.0002C36.4587 37.3208 37.3805 39.5464 39.0215 41.1873C40.6624 42.8283 42.888 43.7502 45.2087 43.7502C47.5293 43.7502 49.7549 42.8283 51.3958 41.1873C53.0368 39.5464 53.9587 37.3208 53.9587 35.0002C53.9587 32.6795 53.0368 30.4539 51.3958 28.813C49.7549 27.172 47.5293 26.2502 45.2087 26.2502ZM16.042 35.0002C16.042 32.6795 16.9639 30.4539 18.6048 28.813C20.2458 27.172 22.4714 26.2502 24.792 26.2502H33.542V43.7502H24.792C22.4714 43.7502 20.2458 42.8283 18.6048 41.1873C16.9639 39.5464 16.042 37.3208 16.042 35.0002ZM24.792 46.6668C23.0614 46.6668 21.3697 47.18 19.9308 48.1415C18.4918 49.1029 17.3703 50.4695 16.7081 52.0684C16.0458 53.6672 15.8725 55.4265 16.2101 57.1239C16.5477 58.8212 17.3811 60.3803 18.6048 61.604C19.8285 62.8277 21.3876 63.6611 23.085 63.9987C24.7823 64.3363 26.5416 64.163 28.1405 63.5008C29.7393 62.8385 31.1059 61.717 32.0674 60.2781C33.0288 58.8391 33.542 57.1474 33.542 55.4168V46.6668H24.792Z" fill="#FFA520"/>
</svg>
