<svg width="40" height="40" viewBox="0 0 40 40" fill="none" xmlns="http://www.w3.org/2000/svg">
<path d="M19.9997 3.3335C17.811 3.3335 15.6437 3.76459 13.6216 4.60217C11.5995 5.43975 9.7622 6.66741 8.21456 8.21505C5.08896 11.3407 3.33301 15.5799 3.33301 20.0002C3.33301 27.3668 8.11634 33.6168 14.733 35.8335C15.5663 35.9668 15.833 35.4502 15.833 35.0002V32.1835C11.2163 33.1835 10.233 29.9502 10.233 29.9502C9.46634 28.0168 8.38301 27.5002 8.38301 27.5002C6.86634 26.4668 8.49967 26.5002 8.49967 26.5002C10.1663 26.6168 11.0497 28.2168 11.0497 28.2168C12.4997 30.7502 14.9497 30.0002 15.8997 29.6002C16.0497 28.5168 16.483 27.7835 16.9497 27.3668C13.2497 26.9502 9.36634 25.5168 9.36634 19.1668C9.36634 17.3168 9.99967 15.8335 11.083 14.6502C10.9163 14.2335 10.333 12.5002 11.2497 10.2502C11.2497 10.2502 12.6497 9.80016 15.833 11.9502C17.1497 11.5835 18.583 11.4002 19.9997 11.4002C21.4163 11.4002 22.8497 11.5835 24.1663 11.9502C27.3497 9.80016 28.7497 10.2502 28.7497 10.2502C29.6663 12.5002 29.083 14.2335 28.9163 14.6502C29.9997 15.8335 30.633 17.3168 30.633 19.1668C30.633 25.5335 26.733 26.9335 23.0163 27.3502C23.6163 27.8668 24.1663 28.8835 24.1663 30.4335V35.0002C24.1663 35.4502 24.433 35.9835 25.283 35.8335C31.8997 33.6002 36.6663 27.3668 36.6663 20.0002C36.6663 17.8115 36.2352 15.6442 35.3977 13.6221C34.5601 11.6 33.3324 9.76269 31.7848 8.21505C30.2371 6.66741 28.3998 5.43975 26.3777 4.60217C24.3556 3.76459 22.1884 3.3335 19.9997 3.3335Z" fill="#213448"/>
</svg>
