<svg width="905" height="776" viewBox="0 0 905 776" fill="none" xmlns="http://www.w3.org/2000/svg">
<path fill-rule="evenodd" clip-rule="evenodd" d="M507.433 574.74C507.911 572.559 509.539 570.823 511.67 570.2C513.811 569.575 516.108 570.165 517.685 571.746C523.528 577.592 531.259 585.336 535.9 589.991C538.182 592.273 541.839 592.382 544.255 590.239C549.178 585.874 557.35 578.612 563.538 573.117C565.201 571.641 567.528 571.191 569.633 571.941C571.728 572.694 573.241 574.523 573.582 576.726C574.873 584.891 576.581 595.696 577.602 602.19C578.106 605.376 580.999 607.615 584.21 607.302C590.753 606.662 601.639 605.588 609.874 604.787C612.082 604.569 614.24 605.574 615.497 607.416C616.741 609.251 616.892 611.624 615.878 613.608C612.12 620.966 607.152 630.709 604.156 636.574C602.694 639.45 603.72 642.963 606.497 644.59C612.179 647.92 621.609 653.459 628.737 657.638C630.66 658.764 631.809 660.845 631.751 663.071C631.68 665.29 630.405 667.308 628.427 668.313C621.052 672.061 611.299 677.013 605.44 679.996C602.566 681.46 601.332 684.904 602.622 687.861C605.259 693.894 609.635 703.919 612.942 711.496C613.837 713.526 613.549 715.892 612.188 717.654C610.815 719.409 608.611 720.282 606.416 719.934C598.246 718.642 587.45 716.92 580.948 715.881C577.758 715.375 574.738 717.444 574.04 720.586C572.637 727.017 570.286 737.694 568.51 745.776C568.03 747.948 566.411 749.681 564.27 750.307C562.139 750.929 559.832 750.342 558.259 748.77C552.422 742.911 544.694 735.178 540.041 730.515C537.762 728.243 534.102 728.124 531.696 730.265C526.775 734.64 518.593 741.905 512.412 747.387C510.749 748.863 508.413 749.316 506.321 748.572C504.225 747.82 502.7 745.984 502.361 743.791C501.07 735.625 499.373 724.818 498.348 718.314C497.845 715.127 494.951 712.889 491.74 713.202C485.187 713.844 474.302 714.919 466.079 715.727C463.862 715.947 461.71 714.929 460.456 713.097C459.2 711.256 459.049 708.883 460.063 706.899C463.821 699.541 468.798 689.795 471.785 683.932C473.25 681.067 472.224 677.553 469.444 675.917C463.772 672.584 454.331 667.048 447.204 662.869C445.281 661.742 444.132 659.661 444.202 657.442C444.27 655.214 445.539 653.208 447.526 652.2C454.889 648.446 464.641 643.493 470.51 640.508C473.385 639.044 474.619 635.6 473.328 632.643C470.694 626.62 466.309 616.597 463.002 609.021C462.104 606.981 462.405 604.622 463.765 602.859C465.126 601.097 467.339 600.222 469.535 600.57C477.698 601.874 488.503 603.594 495.002 604.623C498.182 605.132 501.206 603.072 501.901 599.921C503.316 593.496 505.665 582.81 507.433 574.74Z" fill="#FFA521"/>
<path fill-rule="evenodd" clip-rule="evenodd" d="M731.195 583.146L729.459 584.757C729.187 585.003 728.886 585.232 728.582 585.421L725.649 587.213C725.339 587.411 725.017 587.563 724.672 587.689L721.487 588.88C721.157 589.002 720.803 589.096 720.456 589.156L717.103 589.717C716.757 589.777 716.392 589.8 716.029 589.799L712.599 589.704C712.226 589.697 711.86 589.654 711.497 589.562L708.077 588.797C707.714 588.704 707.353 588.587 707.009 588.44L703.747 586.973C703.575 586.887 703.404 586.801 703.238 586.705L687.878 577.837C687.712 577.741 687.552 577.636 687.392 577.53L684.49 575.439C684.19 575.214 683.908 574.96 683.647 574.692L681.274 572.113C681.012 571.845 680.793 571.549 680.6 571.23L678.803 568.306C678.62 567.993 678.458 567.665 678.337 567.335L677.145 564.151C677.014 563.815 676.929 563.467 676.869 563.12L676.309 559.766C676.245 559.404 676.216 559.049 676.233 558.682L676.318 555.246C676.329 554.889 676.377 554.513 676.454 554.155L676.981 551.845C672.424 546.562 671.465 538.765 675.153 532.377L679.849 524.243C676.135 519.031 675.569 511.903 678.981 505.993L691.363 484.547C694.59 478.959 700.54 475.905 706.571 476.111C707.751 472.943 707.71 469.409 706.413 466.228C697.285 444.132 698.166 418.192 711.038 395.897C733.048 357.775 781.89 344.687 820.022 366.703C858.145 388.713 871.222 437.549 849.212 475.672C838.047 495.011 819.997 507.919 799.931 513.056C793.673 514.683 787.941 517.72 783.151 521.872C785.213 526.612 785.068 532.224 782.286 537.042L769.905 558.487C766.492 564.398 760.037 567.471 753.666 566.862L748.97 574.995C745.282 581.383 738.049 584.45 731.195 583.146Z" fill="#FFA521"/>
<path fill-rule="evenodd" clip-rule="evenodd" d="M720.077 486.886C724.874 478.577 725.573 468.538 721.969 459.644C714.845 442.255 715.549 421.869 725.667 404.343C743.015 374.296 781.519 363.978 811.577 381.332C841.624 398.68 851.932 437.179 834.584 467.226C825.518 482.928 810.697 493.239 794.329 497.039C780.345 500.291 768.343 509.187 761.17 521.612C760.264 523.091 759.729 524.018 759.729 524.018L713.911 497.565L720.077 486.886Z" stroke="#213448" stroke-width="8.33335" stroke-miterlimit="1.5" stroke-linecap="round" stroke-linejoin="round"/>
<path d="M767.667 528.601L705.996 492.995L693.615 514.439L755.286 550.045L767.667 528.601Z" stroke="#213448" stroke-width="8.0128" stroke-miterlimit="1.5" stroke-linecap="round" stroke-linejoin="round"/>
<path d="M746.71 545.094L702.156 519.371L689.776 540.815L734.329 566.538L746.71 545.094Z" stroke="#213448" stroke-width="8.31757" stroke-miterlimit="1.5" stroke-linecap="round" stroke-linejoin="round"/>
<path fill-rule="evenodd" clip-rule="evenodd" d="M725.363 561.363C725.363 561.363 722.787 565.825 720.548 569.703C718.756 572.807 714.792 573.869 711.69 572.079C707.166 569.467 700.844 565.816 696.319 563.204C693.218 561.413 692.156 557.449 693.948 554.346C696.187 550.468 698.763 546.006 698.763 546.006L725.363 561.363Z" stroke="#213448" stroke-width="8.33066" stroke-miterlimit="1.5" stroke-linecap="round" stroke-linejoin="round"/>
<path d="M727.933 505.672L768.221 435.893C772.376 428.695 769.901 419.491 762.704 415.335C755.516 411.185 746.307 413.645 742.152 420.842C737.997 428.04 740.466 437.254 747.653 441.404L769.577 454.061" stroke="#213448" stroke-width="8.33335" stroke-miterlimit="1.5" stroke-linecap="round" stroke-linejoin="round"/>
<path d="M745.705 515.933L785.992 446.154C790.148 438.956 799.357 436.497 806.554 440.652C813.742 444.802 816.216 454.007 812.061 461.204C807.906 468.402 798.691 470.871 791.504 466.721L769.58 454.063" stroke="#213448" stroke-width="8.33335" stroke-miterlimit="1.5" stroke-linecap="round" stroke-linejoin="round"/>
<path fill-rule="evenodd" clip-rule="evenodd" d="M901.535 23.6682L822.426 135.408L819.715 138.567L816.545 141.129L809.255 144.301L801.315 144.742L797.325 143.879L793.485 142.272L787.585 139.131L766.196 160.753C763.126 163.858 758.855 165.469 754.495 165.168C750.135 164.866 746.125 162.681 743.515 159.183L695.656 95.1482L660.085 82.0822L655.255 79.3512L651.635 75.3362L649.446 70.3902L648.926 64.8692L650.196 59.4702L653.035 54.8682L657.176 51.3832L662.325 49.3342L886.085 0.348183C892.135 -0.976817 898.375 1.55319 901.795 6.7162C905.215 11.8792 905.115 18.6132 901.535 23.6682Z" fill="#FFA521"/>
<path fill-rule="evenodd" clip-rule="evenodd" d="M889.295 15.0012C889.295 15.0012 704.185 55.5252 665.535 63.9872C664.625 64.1862 663.955 64.9622 663.885 65.8912C663.825 66.8212 664.385 67.6812 665.255 68.0022C678.145 72.7362 705.005 82.6022 705.005 82.6022L889.295 15.0012Z" fill="#FFA521"/>
<path fill-rule="evenodd" clip-rule="evenodd" d="M755.525 150.204L705.005 82.6022L889.295 15.0012L755.525 150.204Z" fill="#FFC97D"/>
<path fill-rule="evenodd" clip-rule="evenodd" d="M889.295 15.0012L755.525 150.204L723.446 88.0142" fill="#C07000"/>
<path fill-rule="evenodd" clip-rule="evenodd" d="M889.295 15.0012C889.295 15.0012 826.466 103.742 810.186 126.741C808.006 129.823 803.865 130.804 800.535 129.03C781.665 118.987 723.446 88.0142 723.446 88.0142L889.295 15.0012Z" fill="#FFA521"/>
<path fill-rule="evenodd" clip-rule="evenodd" d="M889.295 15.0012L810.186 126.741C808.006 129.823 803.865 130.804 800.535 129.03L784.775 120.644L755.525 150.204L705.005 82.6022L665.255 68.0022C664.385 67.6812 663.825 66.8212 663.885 65.8912C663.955 64.9622 664.625 64.1862 665.535 63.9872L889.295 15.0012Z" stroke="#213448" stroke-width="8.33" stroke-miterlimit="1.5" stroke-linecap="round" stroke-linejoin="round"/>
<path d="M368.65 167.339C395.15 167.339 416.631 188.819 416.631 215.319V367.106C416.631 409.309 450.845 443.522 493.049 443.522C501.079 443.522 509.06 442.257 516.697 439.772L526.936 436.439C602.53 411.839 688.107 451.584 718.081 525.213L790.894 704.085C794.224 712.266 790.115 721.113 781.717 723.846L719.542 744.081C652.348 765.947 576.277 730.618 549.635 665.17L494.843 530.573C488.619 515.278 473.749 505.276 457.236 505.276C434.81 505.276 416.631 523.456 416.631 545.881V697.448C416.631 723.946 395.15 745.426 368.65 745.428H217.227C190.729 745.426 169.248 723.946 169.246 697.448V215.319C169.248 188.819 190.729 167.339 217.227 167.339H368.65ZM587.056 167.339C650.702 167.339 702.298 218.935 702.298 282.581C702.298 346.228 650.702 397.824 587.056 397.824C523.409 397.824 471.813 346.228 471.813 282.581C471.813 218.935 523.409 167.339 587.056 167.339Z" fill="#213448"/>
<path fill-rule="evenodd" clip-rule="evenodd" d="M169.25 275.132C152.25 287.035 111.98 316.715 84.6598 348.78C70.9698 364.855 63.0698 376.897 60.4198 385.647C59.4098 388.954 59.0599 391.497 60.2499 393.334C61.0299 394.539 62.4398 395.222 64.1898 395.765C67.0298 396.642 70.6298 396.942 74.9098 396.834C108.35 395.994 177.36 370.352 257.7 335.2C447.28 252.252 698.8 115.623 698.8 115.623C701.83 113.977 705.63 115.101 707.28 118.132C708.92 121.163 707.8 124.961 704.77 126.607C704.77 126.607 452.7 263.525 262.71 346.652C180.38 382.675 109.49 408.469 75.2199 409.33C60.4099 409.703 51.4498 405.045 48.3598 397.438C46.4898 392.832 46.5298 386.609 49.6098 378.681C53.2798 369.273 61.4898 356.703 75.1498 340.675C108.56 301.447 160.79 265.653 169.25 259.971V275.132Z" fill="#FFA521"/>
<path fill-rule="evenodd" clip-rule="evenodd" d="M133.671 491.953L136.286 482.203L136.909 478.382L136.756 474.597L134.368 467.66L129.555 462.124L126.353 460.099L122.732 458.727L118.912 458.11L115.129 458.258L108.192 460.643L102.65 465.463L100.63 468.665L99.2543 472.282L96.6498 482.031L91.6033 473.29L89.3393 470.149L86.5515 467.58L79.9591 464.362L72.6431 463.85L68.9464 464.687L65.4167 466.273L62.2781 468.537L59.7046 471.32L56.4899 477.912L55.9808 485.23L56.8115 488.929L58.3998 492.46L63.4464 501.201L53.7015 498.582L49.8812 497.965L46.0895 498.118L39.1528 500.503L33.6188 505.318L31.5993 508.52L30.2235 512.137L29.601 515.959L29.7539 519.744L32.1422 526.68L36.9553 532.217L40.1566 534.242L43.7776 535.613L53.5288 538.223L44.7819 543.273L41.6432 545.537L39.0786 548.314L35.855 554.911L35.3461 562.229L36.1853 565.923L37.7738 569.454L40.0351 572.591L42.8144 575.165L49.4066 578.383L56.7314 578.89L60.4192 578.058L63.9492 576.471L72.6961 571.421L70.0828 581.175L69.4578 584.993L69.6107 588.777L71.999 595.714L76.8121 601.251L80.0134 603.275L83.6343 604.647L87.4547 605.264L91.2377 605.116L98.1744 602.731L103.708 597.917L105.737 594.709L107.112 591.092L109.719 581.348L114.766 590.089L117.027 593.225L119.815 595.794L126.408 599.013L133.724 599.524L137.42 598.687L140.95 597.101L144.089 594.837L146.662 592.054L149.877 585.463L150.386 578.144L149.555 574.446L147.969 570.919L142.923 562.178L152.665 564.792L156.485 565.409L160.269 565.261L167.214 562.871L172.748 558.057L174.767 554.854L176.143 551.237L176.766 547.415L176.613 543.631L174.224 536.694L169.411 531.157L166.21 529.133L162.592 527.765L152.838 525.152L161.585 520.101L164.723 517.838L167.288 515.06L170.512 508.463L171.021 501.145L170.181 497.451L168.595 493.924L166.332 490.783L163.552 488.209L156.96 484.991L149.635 484.484L145.947 485.317L142.418 486.903L133.671 491.953Z" fill="#FF6B48"/>
<path d="M75.0015 482.875L92.4307 513.063" stroke="#213448" stroke-width="7.4925" stroke-miterlimit="1.5" stroke-linecap="round" stroke-linejoin="round"/>
<path d="M48.7362 517.099L82.4068 526.121" stroke="#213448" stroke-width="7.49249" stroke-miterlimit="1.5" stroke-linecap="round" stroke-linejoin="round"/>
<path d="M54.3646 559.87L84.5528 542.441" stroke="#213448" stroke-width="7.4925" stroke-miterlimit="1.5" stroke-linecap="round" stroke-linejoin="round"/>
<path d="M88.5971 586.133L97.6191 552.462" stroke="#213448" stroke-width="7.49249" stroke-miterlimit="1.5" stroke-linecap="round" stroke-linejoin="round"/>
<path d="M131.367 580.503L113.937 550.314" stroke="#213448" stroke-width="7.4925" stroke-miterlimit="1.5" stroke-linecap="round" stroke-linejoin="round"/>
<path d="M157.628 546.271L123.957 537.249" stroke="#213448" stroke-width="7.49249" stroke-miterlimit="1.5" stroke-linecap="round" stroke-linejoin="round"/>
<path d="M151.999 503.501L121.811 520.93" stroke="#213448" stroke-width="7.4925" stroke-miterlimit="1.5" stroke-linecap="round" stroke-linejoin="round"/>
<path d="M117.769 477.239L108.747 510.91" stroke="#213448" stroke-width="7.49249" stroke-miterlimit="1.5" stroke-linecap="round" stroke-linejoin="round"/>
<path fill-rule="evenodd" clip-rule="evenodd" d="M204.36 642.327L229.755 686.311C233.894 693.482 231.441 702.658 224.264 706.802L194.289 724.108C187.112 728.251 177.938 725.788 173.799 718.618L148.404 674.633L124.306 694.405C119.888 698.03 113.786 698.834 108.581 696.467C103.372 694.093 99.9711 688.967 99.7958 683.255L95.6887 545.135C95.525 539.619 98.4004 534.45 103.18 531.691C107.961 528.931 113.874 529.025 118.57 531.925L236.131 604.542C240.997 607.546 243.73 613.058 243.181 618.756C242.628 624.448 238.88 629.33 233.532 631.343L204.36 642.327Z" fill="#33C17C"/>
<path fill-rule="evenodd" clip-rule="evenodd" d="M182.53 634.515L228.246 617.305L110.684 544.688L114.791 682.807L152.554 651.821L186.789 711.118L216.764 693.811L182.53 634.515Z" stroke="#213448" stroke-width="8.335" stroke-miterlimit="1.5" stroke-linecap="round" stroke-linejoin="round"/>
</svg>
