<svg width="40" height="40" viewBox="0 0 40 40" fill="none" xmlns="http://www.w3.org/2000/svg">
<path d="M12.9997 3.3335H26.9997C32.333 3.3335 36.6663 7.66683 36.6663 13.0002V27.0002C36.6663 29.5639 35.6479 32.0227 33.835 33.8355C32.0222 35.6484 29.5634 36.6668 26.9997 36.6668H12.9997C7.66634 36.6668 3.33301 32.3335 3.33301 27.0002V13.0002C3.33301 10.4364 4.35146 7.97765 6.16431 6.1648C7.97716 4.35195 10.4359 3.3335 12.9997 3.3335ZM12.6663 6.66683C11.075 6.66683 9.54892 7.29897 8.4237 8.42419C7.29848 9.54941 6.66634 11.0755 6.66634 12.6668V27.3335C6.66634 30.6502 9.34967 33.3335 12.6663 33.3335H27.333C28.9243 33.3335 30.4504 32.7014 31.5756 31.5761C32.7009 30.4509 33.333 28.9248 33.333 27.3335V12.6668C33.333 9.35016 30.6497 6.66683 27.333 6.66683H12.6663ZM28.7497 9.16683C29.3022 9.16683 29.8321 9.38632 30.2228 9.77702C30.6135 10.1677 30.833 10.6976 30.833 11.2502C30.833 11.8027 30.6135 12.3326 30.2228 12.7233C29.8321 13.114 29.3022 13.3335 28.7497 13.3335C28.1971 13.3335 27.6672 13.114 27.2765 12.7233C26.8858 12.3326 26.6663 11.8027 26.6663 11.2502C26.6663 10.6976 26.8858 10.1677 27.2765 9.77702C27.6672 9.38632 28.1971 9.16683 28.7497 9.16683ZM19.9997 11.6668C22.2098 11.6668 24.3294 12.5448 25.8922 14.1076C27.455 15.6704 28.333 17.79 28.333 20.0002C28.333 22.2103 27.455 24.3299 25.8922 25.8927C24.3294 27.4555 22.2098 28.3335 19.9997 28.3335C17.7895 28.3335 15.6699 27.4555 14.1071 25.8927C12.5443 24.3299 11.6663 22.2103 11.6663 20.0002C11.6663 17.79 12.5443 15.6704 14.1071 14.1076C15.6699 12.5448 17.7895 11.6668 19.9997 11.6668ZM19.9997 15.0002C18.6736 15.0002 17.4018 15.5269 16.4641 16.4646C15.5265 17.4023 14.9997 18.6741 14.9997 20.0002C14.9997 21.3262 15.5265 22.598 16.4641 23.5357C17.4018 24.4734 18.6736 25.0002 19.9997 25.0002C21.3258 25.0002 22.5975 24.4734 23.5352 23.5357C24.4729 22.598 24.9997 21.3262 24.9997 20.0002C24.9997 18.6741 24.4729 17.4023 23.5352 16.4646C22.5975 15.5269 21.3258 15.0002 19.9997 15.0002Z" fill="#213448"/>
</svg>
