<svg width="53" height="52" viewBox="0 0 53 52" fill="none" xmlns="http://www.w3.org/2000/svg">
<rect y="0.630371" width="52.9996" height="50.7393" rx="10" fill="#213448"/>
<path d="M16.5771 10.6304C20.2097 10.6304 23.1543 13.575 23.1543 17.2075V20.6519C23.1543 23.2277 25.2425 25.3159 27.8184 25.3159C28.0827 25.3159 28.3464 25.291 28.6084 25.2563C33.3521 24.6281 38.229 27.3145 40.0752 31.8491L42.9102 38.814C43.1676 39.4465 42.8504 40.1308 42.2012 40.3423C37.0051 42.0333 31.1227 39.3008 29.0625 34.2397L27.3145 29.9458C26.9833 29.1325 26.1926 28.6003 25.3145 28.6001C24.1217 28.6001 23.1543 29.5675 23.1543 30.7603V34.7925C23.1543 38.425 20.2097 41.3696 16.5771 41.3696C12.9447 41.3696 10 38.425 10 34.7925V17.2075C10 13.575 12.9447 10.6304 16.5771 10.6304ZM32.2168 10.6304C35.6011 10.6305 38.3447 13.374 38.3447 16.7583C38.3447 20.1427 35.6011 22.8861 32.2168 22.8862C28.8324 22.8862 26.0889 20.1427 26.0889 16.7583C26.0889 13.3739 28.8324 10.6304 32.2168 10.6304Z" fill="white"/>
</svg>
