<svg width="1254" height="1254" viewBox="0 0 1254 1254" fill="none" xmlns="http://www.w3.org/2000/svg">
<g clip-path="url(#clip0_365_464)">
<rect width="1254" height="1254" rx="147" fill="#213448"/>
<path d="M684 503C686.673 505.673 686.252 506.952 686.255 510.689C686.261 511.907 686.266 513.125 686.272 514.38C686.269 515.744 686.265 517.108 686.261 518.472C686.264 519.911 686.268 521.351 686.273 522.79C686.283 526.761 686.281 530.731 686.276 534.702C686.274 538.979 686.283 543.256 686.29 547.533C686.303 555.921 686.305 564.308 686.303 572.696C686.301 579.518 686.303 586.339 686.307 593.161C686.307 594.13 686.308 595.1 686.309 596.1C686.31 598.07 686.311 600.04 686.312 602.01C686.323 620.511 686.321 639.011 686.315 657.512C686.31 674.422 686.321 691.332 686.34 708.242C686.359 725.606 686.368 742.97 686.364 760.334C686.362 770.082 686.364 779.829 686.379 789.577C686.39 797.883 686.392 806.19 686.38 814.496C686.374 818.73 686.373 822.965 686.385 827.199C686.396 831.085 686.392 834.97 686.378 838.855C686.376 840.253 686.378 841.65 686.386 843.047C686.502 864.608 680.34 884.763 665.395 900.625C659.279 906.691 652.871 911.34 645.25 915.313C644.644 915.638 644.037 915.964 643.412 916.299C629.773 923.053 615.034 922.414 600.209 922.281C596.651 922.25 593.092 922.24 589.533 922.234C587.276 922.225 585.019 922.215 582.762 922.203C581.695 922.199 580.629 922.195 579.53 922.19C578.066 922.176 578.066 922.176 576.573 922.161C575.712 922.154 574.85 922.148 573.962 922.141C572 922 572 922 571 921C570.899 919.232 570.869 917.461 570.866 915.69C570.862 914.531 570.857 913.372 570.852 912.178C570.853 910.888 570.853 909.598 570.853 908.27C570.85 906.898 570.846 905.527 570.842 904.156C570.832 900.369 570.828 896.583 570.826 892.797C570.822 888.719 570.812 884.642 570.803 880.565C570.784 870.704 570.773 860.842 570.765 850.981C570.76 846.337 570.755 841.692 570.75 837.047C570.733 821.602 570.718 806.157 570.711 790.711C570.709 786.7 570.707 782.688 570.705 778.676C570.705 777.679 570.704 776.682 570.704 775.655C570.695 759.528 570.67 743.402 570.637 727.276C570.604 710.714 570.586 694.153 570.583 677.591C570.581 668.295 570.572 658.998 570.547 649.702C570.525 641.778 570.517 633.854 570.527 625.93C570.531 621.891 570.529 617.853 570.51 613.815C570.393 588.094 571.815 566.077 590 546C590.638 545.292 591.276 544.585 591.934 543.856C603.661 531.515 618.579 525.237 634.485 520.164C638.524 518.827 642.375 517.207 646.281 515.527C654.544 512.062 663.021 509.088 671.42 505.974C673.18 505.31 674.928 504.614 676.665 503.891C679.308 502.883 681.194 502.697 684 503Z" fill="white"/>
<path d="M668.75 341C670.505 342.327 672.255 343.66 674 345C675.031 345.743 676.063 346.485 677.125 347.25C685.357 355.124 690.882 364.453 695 375C695.34 375.834 695.681 376.668 696.031 377.528C701.07 392.294 698.799 408.888 693 423C692.577 424.066 692.155 425.132 691.719 426.231C685.383 440.468 672.259 453.029 657.863 458.903C656.919 459.265 655.974 459.627 655 460C654.107 460.393 653.214 460.787 652.293 461.192C637.995 466.685 619.348 466.23 605.215 460.539C587.433 452.026 574.945 440.136 567 422C566.606 421.167 566.211 420.335 565.805 419.477C559.588 404.304 561.967 384.83 567.762 369.848C574.328 354.749 584.655 343.942 599 336C599.674 335.603 600.349 335.206 601.043 334.797C622.03 323.2 649.963 327.573 668.75 341Z" fill="white"/>
<path d="M500.739 594.59C504.802 595.327 506.357 596.814 509 600C509.819 605.093 508.96 607.884 506 612C504.023 613.607 502.107 615.028 500 616.438C498.734 617.314 497.468 618.191 496.203 619.07C495.525 619.54 494.846 620.01 494.147 620.493C490.297 623.196 486.528 626.01 482.75 628.813C476.528 633.414 470.282 637.98 464 642.5C457.804 646.96 451.64 651.463 445.5 656C439.276 660.599 433.029 665.163 426.75 669.688C426.017 670.217 425.284 670.747 424.528 671.292C420.871 673.933 417.209 676.566 413.539 679.188C412.151 680.187 410.763 681.187 409.375 682.188C408.406 682.874 408.406 682.874 407.417 683.575C405.908 684.668 404.448 685.828 403 687C403 687.66 403 688.32 403 689C404.513 690.287 404.513 690.287 406.524 691.547C407.288 692.055 408.053 692.563 408.841 693.086C410.095 693.91 410.095 693.91 411.375 694.75C418.161 699.289 424.727 703.993 431.125 709.063C437.464 714.075 443.912 718.845 450.54 723.466C458.322 728.897 465.938 734.546 473.562 740.196C476.866 742.641 480.178 745.076 483.489 747.511C489.692 752.075 495.892 756.643 502.063 761.25C502.982 761.936 503.901 762.622 504.848 763.328C507 765 507 765 509 767C509.471 771.985 509.079 775.009 506 779C502.285 781.477 499.308 781.678 495 781C492.559 779.684 490.746 778.516 488.625 776.813C487.412 775.893 486.199 774.973 484.985 774.055C484.345 773.561 483.705 773.067 483.045 772.558C479.382 769.768 475.62 767.117 471.875 764.438C465.919 760.143 460.021 755.781 454.16 751.356C450.283 748.465 446.363 745.638 442.438 742.813C432.076 735.354 421.806 727.772 411.54 720.181C409.899 718.968 408.258 717.755 406.616 716.543C405.012 715.358 403.409 714.172 401.807 712.985C398.189 710.31 394.558 707.674 390.836 705.145C390.195 704.705 389.554 704.265 388.894 703.812C387.199 702.656 385.493 701.517 383.785 700.379C379.984 697.132 377.746 693.712 376.399 688.813C376.339 684.162 377.474 681.33 380.809 677.887C384.636 674.591 388.754 671.73 392.903 668.86C397.422 665.73 401.835 662.462 406.25 659.188C412.473 654.586 418.719 650.021 425 645.5C431.197 641.04 437.36 636.538 443.5 632C449.64 627.463 455.804 622.96 462 618.5C477.205 607.625 477.205 607.625 492.111 596.348C494.975 594.305 497.314 594.46 500.739 594.59Z" fill="white"/>
<path d="M766 595C769.119 596.478 771.685 598.48 774.375 600.625C775.144 601.209 775.913 601.793 776.705 602.395C778.329 603.628 779.946 604.869 781.558 606.118C785.488 609.147 789.498 612.067 793.5 615C795.094 616.177 796.688 617.354 798.281 618.531C802.832 621.885 807.412 625.198 812 628.5C819.003 633.541 825.958 638.643 832.897 643.772C838.216 647.699 843.568 651.58 848.938 655.438C855.603 660.238 862.225 665.094 868.812 670C869.655 670.623 870.497 671.247 871.365 671.889C882.594 680.29 882.594 680.29 883.594 684.5C883.563 685.325 883.532 686.15 883.5 687C883.49 687.825 883.479 688.65 883.469 689.5C882.265 695.92 878.002 698.852 873 702.438C872.297 702.953 871.594 703.468 870.87 703.999C869.362 705.103 867.852 706.204 866.338 707.302C863.229 709.56 860.141 711.845 857.051 714.13C854.656 715.899 852.258 717.663 849.859 719.426C846.638 721.794 843.419 724.167 840.203 726.543C831.76 732.78 823.289 738.974 814.769 745.106C809.319 749.034 803.903 753.008 798.5 757C792.084 761.739 785.65 766.451 779.188 771.125C778.085 771.924 778.085 771.924 776.961 772.739C774.98 774.168 772.992 775.587 771 777C770.434 777.408 769.867 777.816 769.284 778.236C765.312 781.015 762.875 781.709 758 781C755.247 779.205 753.474 777.948 752 775C751.441 769.316 751.441 769.316 752 767C755.548 762.864 759.824 759.716 764.188 756.5C764.882 755.984 765.576 755.468 766.291 754.936C772.248 750.52 778.264 746.185 784.286 741.858C789.235 738.295 794.134 734.674 799 731C805.296 726.249 811.665 721.607 818.069 717.003C823.66 712.98 829.212 708.908 834.75 704.813C842.443 699.126 850.193 693.528 858 688C850.579 681.73 842.903 675.981 834.966 670.391C831.398 667.867 827.855 665.309 824.312 662.75C823.558 662.205 822.803 661.66 822.025 661.099C815.69 656.516 809.395 651.879 803.107 647.232C797.762 643.287 792.391 639.381 787 635.5C780.587 630.878 774.188 626.237 767.812 621.563C767.035 620.996 766.257 620.428 765.455 619.844C763.287 618.25 761.138 616.635 759 615C758.314 614.478 757.629 613.956 756.922 613.418C752.242 609.669 752.242 609.669 751.141 606.621C751.342 602.592 751.733 600.423 753.938 596.938C758.062 594.328 761.222 594.183 766 595Z" fill="white"/>
<path d="M601 536C601.33 536.99 601.66 537.98 602 539C598.37 542.63 594.74 546.26 591 550C590.01 549.34 589.02 548.68 588 548C589.601 546.372 591.206 544.748 592.812 543.125C593.706 542.22 594.599 541.315 595.52 540.383C598 538 598 538 601 536Z" fill="white"/>
<path d="M579 561C579.66 561 580.32 561 581 561C580.34 563.97 579.68 566.94 579 570C578.34 570 577.68 570 577 570C576.67 571.65 576.34 573.3 576 575C575.34 574.67 574.68 574.34 574 574C574.454 572.582 574.914 571.166 575.375 569.75C575.758 568.567 575.758 568.567 576.148 567.359C576.952 565.134 577.897 563.091 579 561Z" fill="white"/>
<path d="M616 528C616 528.66 616 529.32 616 530C613.883 531.473 613.883 531.473 611.125 533.062C610.22 533.59 609.315 534.117 608.383 534.66C606.939 535.472 605.481 536.259 604 537C603.34 536.34 602.68 535.68 602 535C603.624 534.02 605.25 533.041 606.875 532.062C607.78 531.517 608.685 530.972 609.617 530.41C613.69 528 613.69 528 616 528Z" fill="white"/>
<path d="M611 333C610.01 333 609.02 333 608 333C607.67 333.99 607.34 334.98 607 336C603.755 338.284 600.875 338.176 597 338C605.297 330.888 605.297 330.888 611 333Z" fill="#213448"/>
<path d="M824 713C824.99 713.33 825.98 713.66 827 714C822.703 718.004 822.703 718.004 821 719C818.797 718.652 818.797 718.652 817 718C818.094 717.133 819.201 716.282 820.312 715.438C820.927 714.962 821.542 714.486 822.176 713.996C822.778 713.667 823.38 713.339 824 713Z" fill="white"/>
<path d="M754 764C755.601 768.002 754.293 771.046 753 775C752.67 775 752.34 775 752 775C751.75 767.375 751.75 767.375 754 764Z" fill="white"/>
<path d="M752 600C753.954 602.931 754.647 604.558 755 608C754.34 608.66 753.68 609.32 753 610C752 609 752 609 751.902 606.934C751.914 606.11 751.926 605.286 751.938 604.438C751.947 603.611 751.956 602.785 751.965 601.934C751.976 601.296 751.988 600.657 752 600Z" fill="white"/>
<path d="M634 520C634.66 520.33 635.32 520.66 636 521C635.01 522.485 635.01 522.485 634 524C630.375 524.188 630.375 524.188 627 524C629.386 522.108 631.072 520.976 634 520Z" fill="white"/>
<path d="M613 461C615.64 461.33 618.28 461.66 621 462C621 462.66 621 463.32 621 464C618.36 463.67 615.72 463.34 613 463C613 462.34 613 461.68 613 461Z" fill="white"/>
</g>
<defs>
<clipPath id="clip0_365_464">
<rect width="1254" height="1254" rx="147" fill="white"/>
</clipPath>
</defs>
</svg>
