<svg width="89" height="46" viewBox="0 0 89 46" fill="none" xmlns="http://www.w3.org/2000/svg">
<path d="M6.57715 7.63037C10.2097 7.63037 13.1543 10.575 13.1543 14.2075V17.6519C13.1543 20.2277 15.2425 22.3159 17.8184 22.3159C18.0827 22.3159 18.3464 22.291 18.6084 22.2563C23.3521 21.6281 28.229 24.3145 30.0752 28.8491L32.9102 35.814C33.1676 36.4465 32.8504 37.1308 32.2012 37.3423C27.0051 39.0333 21.1227 36.3008 19.0625 31.2397L17.3145 26.9458C16.9833 26.1325 16.1926 25.6003 15.3145 25.6001C14.1217 25.6001 13.1543 26.5675 13.1543 27.7603V31.7925C13.1543 35.425 10.2097 38.3696 6.57715 38.3696C2.94468 38.3696 0 35.425 0 31.7925V14.2075C0 10.575 2.94468 7.63043 6.57715 7.63037ZM22.2168 7.63037C25.6011 7.63046 28.3447 10.374 28.3447 13.7583C28.3447 17.1427 25.6011 19.8861 22.2168 19.8862C18.8324 19.8862 16.0889 17.1427 16.0889 13.7583C16.0889 10.3739 18.8324 7.63037 22.2168 7.63037Z" fill="#213448"/>
<path d="M50.8895 33.5L43.2695 24.17V33.5H39.0695V12.56H43.2695V21.95L50.8895 12.56H55.9595L47.3195 22.94L56.1995 33.5H50.8895ZM68.6821 33.71C66.7221 33.71 64.9221 33.25 63.2821 32.33C61.6421 31.41 60.3421 30.14 59.3821 28.52C58.4221 26.88 57.9421 25.03 57.9421 22.97C57.9421 20.93 58.4221 19.1 59.3821 17.48C60.3421 15.84 61.6421 14.56 63.2821 13.64C64.9221 12.72 66.7221 12.26 68.6821 12.26C70.6621 12.26 72.4621 12.72 74.0821 13.64C75.7221 14.56 77.0121 15.84 77.9521 17.48C78.9121 19.1 79.3921 20.93 79.3921 22.97C79.3921 25.03 78.9121 26.88 77.9521 28.52C77.0121 30.14 75.7221 31.41 74.0821 32.33C72.4421 33.25 70.6421 33.71 68.6821 33.71ZM68.6821 29.96C69.9421 29.96 71.0521 29.68 72.0121 29.12C72.9721 28.54 73.7221 27.72 74.2621 26.66C74.8021 25.6 75.0721 24.37 75.0721 22.97C75.0721 21.57 74.8021 20.35 74.2621 19.31C73.7221 18.25 72.9721 17.44 72.0121 16.88C71.0521 16.32 69.9421 16.04 68.6821 16.04C67.4221 16.04 66.3021 16.32 65.3221 16.88C64.3621 17.44 63.6121 18.25 63.0721 19.31C62.5321 20.35 62.2621 21.57 62.2621 22.97C62.2621 24.37 62.5321 25.6 63.0721 26.66C63.6121 27.72 64.3621 28.54 65.3221 29.12C66.3021 29.68 67.4221 29.96 68.6821 29.96ZM86.7168 12.56V33.5H82.5168V12.56H86.7168Z" fill="#213448"/>
</svg>
