<svg width="70" height="70" viewBox="0 0 70 70" fill="none" xmlns="http://www.w3.org/2000/svg">
<path d="M35.0029 39.3749C33.8426 39.3749 32.7298 38.914 31.9093 38.0935C31.0889 37.2731 30.6279 36.1603 30.6279 34.9999C30.6279 33.8396 31.0889 32.7268 31.9093 31.9063C32.7298 31.0859 33.8426 30.6249 35.0029 30.6249C36.1633 30.6249 37.2761 31.0859 38.0965 31.9063C38.917 32.7268 39.3779 33.8396 39.3779 34.9999C39.3779 36.1603 38.917 37.2731 38.0965 38.0935C37.2761 38.914 36.1633 39.3749 35.0029 39.3749ZM33.4629 48.1074C33.9724 48.7219 34.4857 49.314 35.0029 49.8837C35.5202 49.3159 36.0335 48.7238 36.5429 48.1074C35.5164 48.1291 34.4895 48.1291 33.4629 48.1074ZM27.6442 47.7428C25.4047 47.5088 23.1798 47.1515 20.9796 46.6724C20.7599 47.6933 20.5946 48.6801 20.4838 49.6328C19.9296 54.2499 20.7025 57.0558 21.8779 57.7324C23.0533 58.4091 25.8679 57.677 29.5925 54.8916C30.3606 54.316 31.1325 53.6792 31.9083 52.9812C30.3917 51.3148 28.9681 49.5661 27.6442 47.7428ZM49.0263 46.6724C46.8261 47.1515 44.6012 47.5088 42.3617 47.7428C41.0377 49.5661 39.6142 51.3148 38.0975 52.9812C38.8753 53.6812 39.6472 54.318 40.4133 54.8916C44.1379 57.677 46.9525 58.412 48.1279 57.7324C49.3033 57.0558 50.0733 54.2499 49.525 49.6328C49.406 48.6388 49.2376 47.651 49.0263 46.6724ZM53.2584 45.5408C54.9413 53.2379 54.0575 59.3658 50.3183 61.5241C46.5792 63.6824 40.8304 61.3841 35.0058 56.0787C29.1813 61.3841 23.4325 63.6795 19.6933 61.5212C15.9542 59.3629 15.0704 53.2378 16.7504 45.5378C9.24001 43.1491 4.37793 39.3166 4.37793 34.9999C4.37793 30.6833 9.24001 26.8537 16.7475 24.462C15.0675 16.762 15.9513 10.637 19.6904 8.47868C23.4296 6.32035 29.1783 8.61576 35.0029 13.9212C40.8275 8.61576 46.5763 6.32035 50.3154 8.47868C54.0546 10.637 54.9384 16.762 53.2584 24.462C60.7629 26.8537 65.625 30.6833 65.625 34.9999C65.625 39.3166 60.7629 43.1491 53.2584 45.5408ZM31.9054 17.0187C31.1315 16.3206 30.3606 15.6838 29.5925 15.1083C25.8679 12.3228 23.0533 11.5878 21.875 12.2674C20.6996 12.9441 19.9296 15.7499 20.4779 20.3699C20.5946 21.3227 20.7599 22.3095 20.9738 23.3303C23.1748 22.8502 25.4007 22.4919 27.6413 22.257C29.0296 20.3495 30.451 18.6034 31.9054 17.0187ZM42.3617 22.257C44.6012 22.492 46.8262 22.8503 49.0263 23.3303C49.246 22.3076 49.4113 21.3208 49.5221 20.3699C50.0763 15.7499 49.3033 12.9441 48.1279 12.2674C46.9525 11.5908 44.1379 12.3228 40.4133 15.1083C39.6453 15.6838 38.8733 16.3206 38.0975 17.0187C39.552 18.6034 40.9733 20.3495 42.3617 22.257ZM36.5429 21.8924C36.0335 21.278 35.5202 20.6859 35.0029 20.1162C34.4877 20.6859 33.9743 21.278 33.4629 21.8924C34.4895 21.8707 35.5164 21.8707 36.5429 21.8924ZM24.4213 42.8866C23.8892 42.0089 23.3758 41.1201 22.8813 40.2208C22.6032 40.9694 22.3475 41.7102 22.1142 42.4433C22.8647 42.6047 23.6328 42.7524 24.4183 42.8866M30.0533 43.5691C33.3466 43.8126 36.6534 43.8126 39.9467 43.5691C41.8053 40.8385 43.4596 37.9743 44.8963 34.9999C43.4606 32.0257 41.8072 29.1615 39.9496 26.4308C36.6563 26.1873 33.3495 26.1873 30.0563 26.4308C28.1987 29.1615 26.5453 32.0257 25.1096 34.9999C26.5453 37.9742 28.1987 40.8384 30.0563 43.5691M47.1246 29.7791C47.4026 29.0305 47.6583 28.2906 47.8917 27.5595C47.127 27.3936 46.3588 27.2448 45.5875 27.1133C46.1186 27.991 46.631 28.8798 47.1246 29.7791ZM17.8821 28.6912C16.8904 29.012 15.9532 29.362 15.0704 29.7412C10.7975 31.5728 8.75293 33.6437 8.75293 34.9999C8.75293 36.3562 10.7946 38.427 15.0704 40.2587C15.9532 40.6378 16.8904 40.9878 17.8821 41.3087C18.5296 39.267 19.3317 37.1495 20.2883 34.9999C19.3709 32.9429 18.5676 30.8367 17.8821 28.6912ZM22.1113 27.5595C22.3465 28.2887 22.6032 29.0276 22.8813 29.7762C23.3758 28.8778 23.8893 27.99 24.4213 27.1133C23.6338 27.2474 22.8618 27.3962 22.1113 27.5595ZM52.1267 41.3087C53.1183 40.9878 54.0556 40.6378 54.9384 40.2587C59.2084 38.427 61.25 36.3562 61.25 34.9999C61.25 33.6437 59.2083 31.5728 54.9325 29.7412C54.0497 29.362 53.1115 29.012 52.1179 28.6912C51.4763 30.7328 50.6713 32.8503 49.7146 34.9999C50.6713 37.1495 51.4734 39.267 52.1209 41.3087M47.8917 42.4433C47.6545 41.7102 47.3978 40.9694 47.1217 40.2208C46.6272 41.1201 46.1137 42.0089 45.5817 42.8866C46.3692 42.7505 47.1411 42.6027 47.8917 42.4433Z" fill="#FFA520"/>
</svg>
