<svg width="70" height="70" viewBox="0 0 70 70" fill="none" xmlns="http://www.w3.org/2000/svg">
<g clip-path="url(#clip0_192_903)">
<path d="M53.5938 0H16.4062C7.34533 0 0 7.34533 0 16.4062V53.5938C0 62.6547 7.34533 70 16.4062 70H53.5938C62.6547 70 70 62.6547 70 53.5938V16.4062C70 7.34533 62.6547 0 53.5938 0Z" fill="#FFA520"/>
<path fill-rule="evenodd" clip-rule="evenodd" d="M22.6953 30.0781C24.3359 23.5156 28.4375 20.2344 35 20.2344C44.8438 20.2344 46.0742 27.6172 50.9961 28.8477C54.2773 29.6683 57.1484 28.4379 59.6094 25.1562C57.9688 31.7188 53.8672 35 47.3047 35C37.4609 35 36.2305 27.6172 31.3086 26.3867C28.0273 25.5664 25.1562 26.7969 22.6953 30.0781ZM10.3906 44.8438C12.0312 38.2812 16.1328 35 22.6953 35C32.5391 35 33.7695 42.3828 38.6914 43.6133C41.9727 44.434 44.8438 43.2035 47.3047 39.9219C45.6641 46.4844 41.5625 49.7656 35 49.7656C25.1562 49.7656 23.9258 42.3828 19.0039 41.1523C15.7227 40.3317 12.8516 41.5621 10.3906 44.8438Z" fill="white"/>
</g>
<defs>
<clipPath id="clip0_192_903">
<rect width="70" height="70" fill="white"/>
</clipPath>
</defs>
</svg>
